PathFileType	4	(X/Y/Z)	./resultDataOpenSim/trcMotMarkerGrf/sub06/qtm-04-06.trc
DataRate	CameraRate	NumFrames	NumMarkers	Units	OrigDataRate	OrigDataStartFrame	OrigNumFrames
250.000000	250.000000	9	24	m	250.000000	139	555
Frame#	Time	L.Toe.Tip			R.Toe.Tip			L.Ankle.Lat			R.Ankle.Lat			L.Ankle.Med			R.Ankle.Med			L.Heel			R.Heel			L.Knee.Lat			R.Knee.Lat			L.Knee.Med			R.Knee.Med			L.Thigh.Upper			R.Thigh.Upper			L.ASIS			R.ASIS			V.Sacral			L.Acromium			R.Acromium			C7			L.Elbow			R.Elbow			L.Wrist.Lat			R.Wrist.Lat
		X1	Y1	Z1	X2	Y2	Z2	X3	Y3	Z3	X4	Y4	Z4	X5	Y5	Z5	X6	Y6	Z6	X7	Y7	Z7	X8	Y8	Z8	X9	Y9	Z9	X10	Y10	Z10	X11	Y11	Z11	X12	Y12	Z12	X13	Y13	Z13	X14	Y14	Z14	X15	Y15	Z15	X16	Y16	Z16	X17	Y17	Z17	X18	Y18	Z18	X19	Y19	Z19	X20	Y20	Z20	X21	Y21	Z21	X22	Y22	Z22	X23	Y23	Z23	X24	Y24	Z24

139	0.552	-0.11424072	0.12262593	-0.057481155	-0.80890909	0.035122412	0.078364443	-0.23959729	0.093256373	-0.07534635	-0.94187762	0.064295649	0.096927672	-0.24451132	0.11020491	0.0088717858	-0.91430869	0.084079815	0.011231114	-0.28466076	0.030614245	-0.024630915	-0.99607933	0.048404111	0.031807519	-0.38622591	0.4312982	-0.077133701	-0.74208193	0.40537759	0.14210656	-0.40234896	0.41839961	0.046895649	-0.76504812	0.41105744	0.010613569	-0.57068704	0.76859737	-0.12801924	-0.66192129	0.75983921	0.21072169	-0.51394848	0.81405828	-0.070268773	-0.54549141	0.81036402	0.17720794	-0.71297037	0.88436512	0.03872037	-0.63948332	1.2912844	-0.14111597	-0.60942647	1.2868432	0.22131424	-0.70276438	1.3233418	0.044767834	-0.73467749	0.99425806	-0.18006562	-0.60366542	0.97398296	0.32742495	-0.65234485	0.77298613	-0.24468316	-0.3638165	0.90395704	0.30119949
140	0.556	-0.10666659	0.12123014	-0.055873959	-0.80876933	0.035110543	0.07837946	-0.2317255	0.091390198	-0.073816833	-0.94126016	0.064799051	0.096678389	-0.23705971	0.10841864	0.010299156	-0.91351468	0.084542592	0.011028315	-0.27674438	0.028702955	-0.022943737	-0.99562445	0.049438631	0.031368455	-0.37922953	0.42933426	-0.076276918	-0.73722218	0.40346908	0.1419467	-0.39553956	0.41646623	0.047755032	-0.759396	0.40920297	0.010495568	-0.56349299	0.76637845	-0.12791978	-0.65647951	0.75795625	0.21095464	-0.50685632	0.81154181	-0.069611031	-0.53950619	0.80843921	0.1775021	-0.7056506	0.88238471	0.0394102	-0.63380211	1.2889982	-0.14126973	-0.6035802	1.2846068	0.22119049	-0.69704012	1.3210202	0.04462286	-0.72889686	0.99218363	-0.17987399	-0.59636777	0.97182415	0.32752956	-0.64807752	0.77064214	-0.24517277	-0.35619984	0.90304893	0.30077038
141	0.56	-0.099440554	0.11946594	-0.05416814	-0.80863188	0.035104418	0.078390792	-0.224291	0.089302963	-0.07221734	-0.94047746	0.065412629	0.096410017	-0.22992971	0.10641745	0.011758777	-0.91255894	0.08506856	0.010821253	-0.26932135	0.026630723	-0.021304314	-0.9950738	0.050587109	0.030893353	-0.37223294	0.42735673	-0.075482603	-0.73234733	0.40156563	0.14182512	-0.38862009	0.41463023	0.048543925	-0.75381449	0.40732621	0.010401688	-0.55631365	0.76423199	-0.12787129	-0.65085094	0.75601188	0.21114942	-0.49975418	0.80909218	-0.068973391	-0.53339804	0.80652256	0.17778182	-0.69830943	0.88034051	0.039938538	-0.6281238	1.286737	-0.14146082	-0.59769551	1.2823599	0.22106025	-0.69122518	1.3186159	0.044497556	-0.72308262	0.99011145	-0.17971189	-0.58907746	0.96967962	0.32761235	-0.64386778	0.76826295	-0.24571025	-0.34852291	0.90205589	0.30031066
142	0.564	-0.092555085	0.11734216	-0.052385567	-0.80849239	0.035107287	0.078407565	-0.21727731	0.087007799	-0.070543281	-0.93942269	0.066227155	0.096173245	-0.22305415	0.10423417	0.013286473	-0.91153751	0.085640975	0.010642047	-0.26238983	0.024386591	-0.019710625	-0.99450103	0.051879023	0.030467466	-0.36523101	0.42539213	-0.074748668	-0.72748317	0.39966657	0.14175	-0.38158	0.41291545	0.049265311	-0.74830205	0.40543053	0.010330002	-0.54916467	0.76213971	-0.12786575	-0.64504862	0.75401202	0.21130856	-0.49265407	0.80670895	-0.068374242	-0.52721329	0.80459461	0.17804472	-0.6909473	0.87824101	0.040332599	-0.62227495	1.2844861	-0.14166802	-0.59176534	1.2801006	0.22092584	-0.68531248	1.3161299	0.044387868	-0.71723546	0.98803603	-0.17958217	-0.58176772	0.96754019	0.32767018	-0.63964257	0.76585749	-0.24627963	-0.34083534	0.90098038	0.29982605
143	0.568	-0.086006215	0.11486829	-0.050542221	-0.80833024	0.035123445	0.078443641	-0.21062805	0.084512073	-0.068829307	-0.93809716	0.067278027	0.096026342	-0.21642221	0.10187911	0.014881507	-0.91049797	0.086251872	0.010500497	-0.25593092	0.021969085	-0.018159327	-0.99402123	0.053356787	0.030196708	-0.35813683	0.4234782	-0.074043487	-0.72272119	0.39775836	0.14169324	-0.37441184	0.4113343	0.049927662	-0.74276785	0.40351144	0.010294069	-0.54204435	0.76009024	-0.12789756	-0.63908135	0.75196094	0.2114325	-0.48554825	0.80439767	-0.067820827	-0.52098388	0.80263741	0.1782861	-0.68356587	0.87609298	0.040607458	-0.61616118	1.2822234	-0.14187613	-0.58578596	1.2778325	0.22078393	-0.67930743	1.3135805	0.044270996	-0.7113526	0.98594879	-0.17948587	-0.5744009	0.96539414	0.32769184	-0.63536281	0.76344432	-0.24688714	-0.33321017	0.89982746	0.29932852
144	0.572	-0.07978967	0.11205749	-0.048635559	-0.80811209	0.035154931	0.078507587	-0.20431398	0.08181588	-0.067106842	-0.93669065	0.068486585	0.095993018	-0.21006367	0.099347464	0.01651998	-0.90944023	0.086914666	0.010397237	-0.2499153	0.019386447	-0.016645254	-0.99368601	0.055038162	0.030128921	-0.35086725	0.42164549	-0.073337968	-0.71812157	0.3958273	0.14163468	-0.36711656	0.40989121	0.050543427	-0.73713081	0.40156647	0.01031903	-0.53493629	0.75808032	-0.1279541	-0.63295588	0.74986212	0.21152141	-0.47841798	0.8021661	-0.067309383	-0.51471296	0.80064631	0.17850449	-0.67616833	0.87390199	0.040770962	-0.60992732	1.2799461	-0.14209857	-0.57975737	1.2755602	0.22063171	-0.67322723	1.3110089	0.044122703	-0.7054285	0.98383888	-0.17941226	-0.56696992	0.96324375	0.32767358	-0.63105243	0.76103323	-0.24755332	-0.32565944	0.89859956	0.29882303
145	0.576	-0.07390158	0.10893681	-0.046661019	-0.80782615	0.035193606	0.078585392	-0.19834739	0.078918542	-0.065385876	-0.9354333	0.069750166	0.096059339	-0.20404847	0.096623588	0.018163064	-0.90838441	0.087659782	0.010350174	-0.24431717	0.016657048	-0.015149373	-0.99337926	0.056880956	0.030182743	-0.34349316	0.41989475	-0.072647823	-0.71365241	0.393876	0.14158531	-0.35970339	0.40858212	0.051123703	-0.73137006	0.39960019	0.010418157	-0.52781846	0.75610899	-0.12802634	-0.62667866	0.74771894	0.2115758	-0.47125155	0.8000206	-0.0668391	-0.50839222	0.79862698	0.17870655	-0.66875862	0.87167322	0.040829178	-0.60376492	1.2776569	-0.14235703	-0.5736825	1.2732833	0.22047126	-0.66710784	1.3084796	0.043935216	-0.69945417	0.98170198	-0.17933285	-0.55951515	0.96110679	0.32763361	-0.62673477	0.75862344	-0.24828222	-0.31815039	0.89729938	0.2983132
146	0.58	-0.068344724	0.10554791	-0.044642656	-0.80752392	0.035221611	0.078643007	-0.19274963	0.07582471	-0.063658425	-0.93438895	0.071057016	0.096188816	-0.19842613	0.093710888	0.019796772	-0.90739303	0.088514981	0.010389695	-0.23912463	0.013805194	-0.013627109	-0.9929457	0.058833631	0.030247141	-0.33616233	0.41821178	-0.072013966	-0.70922765	0.39192438	0.14156664	-0.35218311	0.40739011	0.051677674	-0.72551059	0.39762114	0.01057539	-0.5206654	0.75417579	-0.1281166	-0.6202565	0.74553487	0.21159648	-0.46404787	0.79796167	-0.066415851	-0.50201556	0.79658174	0.17890589	-0.66134076	0.86941191	0.040788802	-0.59765544	1.2753392	-0.14264693	-0.56757575	1.2709968	0.22030923	-0.66099387	1.3060514	0.043716611	-0.69342439	0.97954897	-0.17922359	-0.55208381	0.95899749	0.32760079	-0.62233852	0.75622472	-0.24903573	-0.3106535	0.89593148	0.2978047
147	0.584	-0.063137196	0.10192622	-0.042633931	-0.8073065	0.035231099	0.078675842	-0.18752864	0.072547987	-0.061906362	-0.93348432	0.072443454	0.096339762	-0.19317013	0.090644461	0.021448822	-0.90649427	0.089487527	0.010529053	-0.23433817	0.010853046	-0.012013839	-0.9923704	0.060899913	0.030318036	-0.32889169	0.41660111	-0.071445954	-0.70476721	0.38999778	0.14159366	-0.34456204	0.40628759	0.052215008	-0.71959596	0.39563557	0.010756412	-0.51344865	0.75228313	-0.12822777	-0.6136965	0.74331351	0.21158438	-0.45680969	0.79598353	-0.06604509	-0.49558151	0.79450469	0.17911488	-0.65391864	0.86712341	0.040657406	-0.59146017	1.2729799	-0.14294454	-0.56146484	1.2686991	0.22014804	-0.65490376	1.3037352	0.043479307	-0.68735466	0.97740039	-0.17910066	-0.54468391	0.95691338	0.32758831	-0.61770709	0.75386466	-0.24974866	-0.30315509	0.89449701	0.29730004
